<svg width="20" height="21" viewBox="0 0 20 21" fill="none" xmlns="http://www.w3.org/2000/svg">
<path d="M10 4.12169C12.0025 4.12169 12.24 4.12919 13.0308 4.16502C13.7617 4.19835 14.1592 4.32085 14.4233 4.42335C14.7733 4.55919 15.0233 4.72169 15.2858 4.98419C15.5483 5.24669 15.7108 5.49669 15.8467 5.84669C15.9492 6.11085 16.0717 6.50835 16.105 7.23919C16.1408 8.03002 16.1483 8.26752 16.1483 10.27C16.1483 12.2725 16.1408 12.51 16.105 13.3009C16.0717 14.0317 15.9492 14.4292 15.8467 14.6934C15.7108 15.0434 15.5483 15.2934 15.2858 15.5559C15.0233 15.8184 14.7733 15.9809 14.4233 16.1167C14.1592 16.2192 13.7617 16.3417 13.0308 16.375C12.24 16.4109 12.0033 16.4184 10 16.4184C7.99667 16.4184 7.76 16.4109 6.96917 16.375C6.23833 16.3417 5.84083 16.2192 5.57667 16.1167C5.22667 15.9809 4.97667 15.8184 4.71417 15.5559C4.45167 15.2934 4.28917 15.0434 4.15333 14.6934C4.05083 14.4292 3.92833 14.0317 3.895 13.3009C3.85917 12.51 3.85167 12.2725 3.85167 10.27C3.85167 8.26752 3.85917 8.03002 3.895 7.23919C3.92833 6.50835 4.05083 6.11085 4.15333 5.84669C4.28917 5.49669 4.45167 5.24669 4.71417 4.98419C4.97667 4.72169 5.22667 4.55919 5.57667 4.42335C5.84083 4.32085 6.23833 4.19835 6.96917 4.16502C7.76 4.12919 7.9975 4.12169 10 4.12169ZM10 2.77002C7.96333 2.77002 7.7075 2.77835 6.9075 2.81502C6.10917 2.85169 5.56417 2.97835 5.0875 3.16335C4.59417 3.35502 4.17583 3.61169 3.75917 4.02919C3.3425 4.44585 3.08583 4.86419 2.89417 5.35752C2.70833 5.83419 2.58167 6.37919 2.545 7.17752C2.50833 7.97752 2.5 8.23335 2.5 10.27C2.5 12.3067 2.50833 12.5625 2.545 13.3625C2.58167 14.1609 2.70833 14.7059 2.89333 15.1834C3.085 15.6767 3.34167 16.095 3.75833 16.5117C4.175 16.9284 4.59333 17.185 5.08667 17.3767C5.56333 17.5617 6.10917 17.6892 6.9075 17.725C7.7075 17.7617 7.96333 17.77 10 17.77C12.0367 17.77 12.2925 17.7617 13.0925 17.725C13.8908 17.6884 14.4358 17.5617 14.9133 17.3767C15.4067 17.185 15.825 16.9284 16.2417 16.5117C16.6583 16.095 16.915 15.6767 17.1067 15.1834C17.2917 14.7067 17.4192 14.1609 17.455 13.3625C17.4917 12.5625 17.5 12.3067 17.5 10.27C17.5 8.23335 17.4917 7.97752 17.455 7.17752C17.4183 6.37919 17.2917 5.83419 17.1067 5.35669C16.915 4.86335 16.6583 4.44502 16.2417 4.02835C15.825 3.61169 15.4067 3.35502 14.9133 3.16335C14.4367 2.97835 13.8908 2.85085 13.0925 2.81502C12.2925 2.77835 12.0367 2.77002 10 2.77002ZM10 6.41835C7.87333 6.41835 6.14833 8.14252 6.14833 10.27C6.14833 12.3975 7.87333 14.1217 10 14.1217C12.1267 14.1217 13.8517 12.3975 13.8517 10.27C13.8517 8.14252 12.1267 6.41835 10 6.41835ZM10 12.77C8.61917 12.77 7.5 11.6509 7.5 10.27C7.5 8.88919 8.61917 7.77002 10 7.77002C11.3808 7.77002 12.5 8.88919 12.5 10.27C12.5 11.6509 11.3808 12.77 10 12.77ZM14.0033 5.36669C13.5067 5.36669 13.1033 5.77002 13.1033 6.26669C13.1033 6.76335 13.5067 7.16669 14.0033 7.16669C14.5 7.16669 14.9033 6.76335 14.9033 6.26669C14.9033 5.77002 14.5008 5.36669 14.0033 5.36669Z" fill="white"/>
</svg>
