<svg width="20" height="21" viewBox="0 0 20 21" fill="none" xmlns="http://www.w3.org/2000/svg">
<path d="M18.525 5.20685C17.9117 5.47852 17.2525 5.66268 16.5608 5.74518C17.2667 5.32185 17.8092 4.65185 18.0642 3.85352C17.4033 4.24518 16.6717 4.53018 15.8925 4.68352C15.27 4.01852 14.3808 3.60352 13.3975 3.60352C11.5092 3.60352 9.97833 5.13435 9.97833 7.02268C9.97833 7.29102 10.0083 7.55185 10.0667 7.80185C7.225 7.65935 4.70583 6.29852 3.01917 4.22935C2.725 4.73435 2.55583 5.32185 2.55583 5.94852C2.55583 7.13518 3.15917 8.18102 4.07667 8.79435C3.51583 8.77685 2.98917 8.62268 2.5275 8.36685C2.5275 8.38102 2.5275 8.39518 2.5275 8.41018C2.5275 10.0668 3.70583 11.4493 5.27083 11.7627C4.98417 11.841 4.68167 11.8827 4.37 11.8827C4.15 11.8827 3.93583 11.861 3.72667 11.821C4.16167 13.1793 5.425 14.1677 6.92083 14.196C5.75083 15.1127 4.27583 15.6593 2.67417 15.6593C2.39833 15.6593 2.12583 15.6435 1.85833 15.6118C3.37167 16.5818 5.16917 17.1477 7.1 17.1477C13.3892 17.1477 16.8292 11.9377 16.8292 7.41852C16.8292 7.27018 16.8258 7.12268 16.8192 6.97602C17.4875 6.49518 18.0667 5.89268 18.525 5.20685Z" fill="white"/>
</svg>
