<svg width="20" height="21" viewBox="0 0 20 21" fill="none" xmlns="http://www.w3.org/2000/svg">
<path d="M18.1667 6.93751C18.1667 6.93751 18.0042 5.78918 17.5042 5.28335C16.8708 4.61918 16.16 4.61585 15.8342 4.57751C13.5017 4.40918 10.0033 4.40918 10.0033 4.40918H9.99583C9.99583 4.40918 6.4975 4.40918 4.165 4.57751C3.84 4.61668 3.13 4.62001 2.49583 5.28335C1.99583 5.78918 1.83333 6.93751 1.83333 6.93751C1.83333 6.93751 1.66666 8.28668 1.66666 9.63501V10.8992C1.66666 12.2475 1.83333 13.5967 1.83333 13.5967C1.83333 13.5967 1.99583 14.745 2.49583 15.2508C3.13 15.915 3.9625 15.8933 4.33333 15.9633C5.66666 16.0908 10 16.1308 10 16.1308C10 16.1308 13.5025 16.1258 15.8342 15.9567C16.16 15.9175 16.87 15.9142 17.5042 15.2508C18.0042 14.745 18.1667 13.5967 18.1667 13.5967C18.1667 13.5967 18.3333 12.2483 18.3333 10.8992V9.63501C18.3333 8.28668 18.1667 6.93751 18.1667 6.93751ZM8.27916 12.4317L8.27833 7.74835L12.7817 10.0983L8.27916 12.4317Z" fill="white"/>
</svg>
